<svg width="186" height="44" viewBox="0 0 186 44" fill="none" xmlns="http://www.w3.org/2000/svg">
<path d="M18.2508 29.5V6.21875H27.3334C29.1009 6.21875 30.6043 6.5551 31.8437 7.22781C33.0831 7.90052 34.0288 8.82792 34.6809 10.01C35.333 11.1921 35.659 12.549 35.659 14.0807C35.659 15.618 35.3288 16.973 34.6683 18.1458C34.0077 19.3187 33.0491 20.237 31.7924 20.9008C30.5358 21.5647 29.0124 21.8966 27.2224 21.8966H21.3877V18.0468H26.4658C27.4362 18.0468 28.2374 17.8781 28.8692 17.5406C29.5011 17.2031 29.9708 16.7361 30.2784 16.1395C30.586 15.543 30.7398 14.8567 30.7398 14.0807C30.7398 13.2934 30.586 12.6053 30.2784 12.0163C29.9708 11.4274 29.4999 10.9696 28.8656 10.6429C28.2314 10.3162 27.4267 10.1529 26.4515 10.1529H23.0253V29.5H18.2508ZM40.3468 29.7959C39.5835 29.7959 38.9413 29.5382 38.4201 29.0227C37.8989 28.5071 37.6384 27.8705 37.6384 27.1128C37.6384 26.3551 37.8989 25.7184 38.4201 25.2029C38.9413 24.6874 39.5835 24.4296 40.3468 24.4296C41.1102 24.4296 41.7524 24.6874 42.2736 25.2029C42.7948 25.7184 43.0553 26.3551 43.0553 27.1128C43.0553 27.8705 42.7948 28.5071 42.2736 29.0227C41.7524 29.5382 41.1102 29.7959 40.3468 29.7959ZM55.819 29.8125C53.7619 29.8125 51.9125 29.3434 50.2708 28.4052C48.6292 27.4669 47.3323 26.1074 46.3802 24.3266C45.4281 22.5457 44.9521 20.3952 44.9521 17.875C44.9521 15.3387 45.4281 13.1788 46.3802 11.3951C47.3323 9.6115 48.6292 8.25078 50.2708 7.31297C51.9125 6.37516 53.7619 5.90625 55.819 5.90625C57.8761 5.90625 59.7229 6.37516 61.3593 7.31297C62.9958 8.25078 64.2903 9.6115 65.2428 11.3951C66.1953 13.1788 66.6715 15.3387 66.6715 17.875C66.6715 20.4008 66.1953 22.5542 65.2428 24.335C64.2903 26.1158 62.9958 27.474 61.3593 28.4094C59.7229 29.3448 57.8761 29.8125 55.819 29.8125ZM55.819 25.5774C57.0244 25.5774 58.0773 25.2821 58.9777 24.6915C59.8781 24.1009 60.5789 23.2317 61.08 22.0842C61.5811 20.9366 61.8317 19.5335 61.8317 17.875C61.8317 16.2013 61.5811 14.7892 61.08 13.6388C60.5789 12.4884 59.8781 11.6179 58.9777 11.0273C58.0773 10.4367 57.0244 10.1414 55.819 10.1414C54.6144 10.1414 53.5607 10.4379 52.6579 11.0309C51.7551 11.6239 51.0518 12.4956 50.5478 13.646C50.0439 14.7964 49.7919 16.2061 49.7919 17.875C49.7919 19.5335 50.0439 20.9354 50.5478 22.0806C51.0518 23.2258 51.7551 24.0949 52.6579 24.6879C53.5607 25.2809 54.6144 25.5774 55.819 25.5774ZM71.2781 29.7959C70.5148 29.7959 69.8725 29.5382 69.3513 29.0227C68.8302 28.5071 68.5696 27.8705 68.5696 27.1128C68.5696 26.3551 68.8302 25.7184 69.3513 25.2029C69.8725 24.6874 70.5148 24.4296 71.2781 24.4296C72.0414 24.4296 72.6837 24.6874 73.2048 25.2029C73.726 25.7184 73.9866 26.3551 73.9866 27.1128C73.9866 27.8705 73.726 28.5071 73.2048 29.0227C72.6837 29.5382 72.0414 29.7959 71.2781 29.7959ZM86.4674 29.8387C84.6047 29.8387 82.983 29.5524 81.6024 28.9798C80.2218 28.4072 79.1459 27.5594 78.3749 26.4364C77.6038 25.3133 77.1939 23.9264 77.1452 22.2755H81.7869C81.8477 23.0605 82.0813 23.7158 82.4876 24.2413C82.894 24.7668 83.4365 25.1606 84.1153 25.4226C84.794 25.6845 85.5612 25.8155 86.4168 25.8155C87.2664 25.8155 88.0078 25.6915 88.641 25.4433C89.2742 25.1952 89.7667 24.8473 90.1185 24.3995C90.4702 23.9517 90.6461 23.4344 90.6461 22.8478C90.6461 22.3116 90.4886 21.8639 90.1736 21.5049C89.8586 21.1458 89.4028 20.8377 88.8061 20.5807C88.2095 20.3236 87.486 20.0945 86.6358 19.8935L84.0765 19.2569C82.1058 18.7763 80.5617 18.0229 79.4441 16.9968C78.3265 15.9706 77.7677 14.6108 77.7677 12.9172C77.7677 11.5147 78.1472 10.2875 78.9061 9.23564C79.6651 8.18376 80.7036 7.36589 82.0216 6.78204C83.3397 6.19818 84.8415 5.90625 86.5271 5.90625C88.2496 5.90625 89.7515 6.20099 91.0326 6.79047C92.3138 7.37996 93.3124 8.1971 94.0284 9.2419C94.7445 10.2867 95.1149 11.4905 95.1397 12.8532H90.5289C90.4385 11.9203 90.0389 11.1974 89.3301 10.6845C88.6212 10.1716 87.6725 9.9151 86.484 9.9151C85.6753 9.9151 84.9847 10.0313 84.4123 10.2638C83.8399 10.4963 83.4045 10.8163 83.106 11.2237C82.8074 11.631 82.6582 12.0952 82.6582 12.6163C82.6582 13.1869 82.832 13.6605 83.1797 14.0372C83.5274 14.4138 83.9857 14.7205 84.5547 14.9572C85.1236 15.1938 85.7343 15.3903 86.3869 15.5465L88.4871 16.0606C89.4665 16.2835 90.3789 16.583 91.2241 16.959C92.0693 17.3351 92.8089 17.7962 93.443 18.3425C94.077 18.8887 94.5704 19.5357 94.9231 20.2833C95.2758 21.0309 95.4522 21.8929 95.4522 22.8694C95.4522 24.2808 95.0961 25.5096 94.384 26.5558C93.672 27.6019 92.6463 28.4106 91.3072 28.9819C89.968 29.5531 88.3547 29.8387 86.4674 29.8387ZM101.319 29.7959C100.555 29.7959 99.9131 29.5382 99.392 29.0227C98.8708 28.5071 98.6102 27.8705 98.6102 27.1128C98.6102 26.3551 98.8708 25.7184 99.392 25.2029C99.9131 24.6874 100.555 24.4296 101.319 24.4296C102.082 24.4296 102.724 24.6874 103.245 25.2029C103.767 25.7184 104.027 26.3551 104.027 27.1128C104.027 27.8705 103.767 28.5071 103.245 29.0227C102.724 29.5382 102.082 29.7959 101.319 29.7959Z" fill="url(#paint0_linear_104_173)"/>
<rect x="113.605" y="11.28" width="12.8" height="3.83" rx="1.915" fill="url(#paint1_linear_104_173)"/>
<rect x="108.495" y="17.7001" width="12.8" height="3.83" rx="1.915" fill="url(#paint2_linear_104_173)"/>
<path d="M129.413 10.177V6.21875H148.425V10.177H141.314V29.5H136.539V10.177H129.413ZM146.714 29.5L154.678 6.21875H160.917L169.083 29.5H163.781L160.05 18.2696C159.596 16.8191 159.139 15.2308 158.679 13.5048C158.219 11.7787 157.733 9.89794 157.222 7.86252H158.257C157.762 9.90752 157.299 11.7979 156.868 13.5335C156.437 15.2692 156.007 16.8478 155.579 18.2696L151.98 29.5H146.714ZM151.69 24.097V20.3556H164.107V24.097H151.69Z" fill="url(#paint3_linear_104_173)"/>
<defs>
<linearGradient id="paint0_linear_104_173" x1="16.5449" y1="17.5" x2="106.265" y2="17.5" gradientUnits="userSpaceOnUse">
<stop stop-color="#0EA5E9"/>
<stop offset="1" stop-color="#8B5CF6"/>
</linearGradient>
<linearGradient id="paint1_linear_104_173" x1="113.605" y1="13.195" x2="126.405" y2="13.195" gradientUnits="userSpaceOnUse">
<stop stop-color="#0EA5E9"/>
<stop offset="1" stop-color="#8B5CF6"/>
</linearGradient>
<linearGradient id="paint2_linear_104_173" x1="108.495" y1="19.6151" x2="121.295" y2="19.6151" gradientUnits="userSpaceOnUse">
<stop stop-color="#0EA5E9"/>
<stop offset="1" stop-color="#8B5CF6"/>
</linearGradient>
<linearGradient id="paint3_linear_104_173" x1="128.635" y1="17.5" x2="169.445" y2="17.5" gradientUnits="userSpaceOnUse">
<stop stop-color="#0EA5E9"/>
<stop offset="1" stop-color="#8B5CF6"/>
</linearGradient>
</defs>
</svg>

