<svg width="147" height="30" viewBox="0 0 147 30" fill="none" xmlns="http://www.w3.org/2000/svg">
<path d="M-4.43757e-05 6.36367V3.24249e-05H25.284V6.36367H16.534V29.0909H8.74996V6.36367H-4.43757e-05ZM36.549 19.5455V7.27276H44.3899V29.0909H36.9467V24.9432H36.7194C36.2459 26.3353 35.4173 27.4243 34.2336 28.2103C33.0499 28.9868 31.6437 29.375 30.0149 29.375C28.4902 29.375 27.155 29.0247 26.0092 28.3239C24.8728 27.6231 23.9874 26.6572 23.3529 25.4262C22.7279 24.1951 22.4107 22.7841 22.4012 21.1932V7.27276H30.2421V19.5455C30.2516 20.625 30.5262 21.4726 31.066 22.0881C31.6152 22.7036 32.3823 23.0114 33.3671 23.0114C34.0206 23.0114 34.584 22.8741 35.0575 22.5995C35.5404 22.3154 35.9098 21.9176 36.1654 21.4063C36.4306 20.8854 36.5584 20.2652 36.549 19.5455ZM42.4375 6.36367V3.24249e-05H67.7215V6.36367H58.9715V29.0909H51.1875V6.36367H42.4375ZM78.9865 19.5455V7.27276H86.8274V29.0909H79.3842V24.9432H79.1569C78.6834 26.3353 77.8548 27.4243 76.6711 28.2103C75.4874 28.9868 74.0812 29.375 72.4524 29.375C70.9277 29.375 69.5925 29.0247 68.4467 28.3239C67.3103 27.6231 66.4249 26.6572 65.7904 25.4262C65.1654 24.1951 64.8482 22.7841 64.8387 21.1932V7.27276H72.6796V19.5455C72.6891 20.625 72.9637 21.4726 73.5035 22.0881C74.0527 22.7036 74.8198 23.0114 75.8046 23.0114C76.4581 23.0114 77.0215 22.8741 77.495 22.5995C77.9779 22.3154 78.3473 21.9176 78.6029 21.4063C78.8681 20.8854 78.9959 20.2652 78.9865 19.5455ZM87.8153 29.0909V7.27276H95.4289V11.4205H95.6562C96.0539 9.8864 96.6837 8.76424 97.5454 8.05401C98.4166 7.34378 99.4346 6.98867 100.599 6.98867C100.94 6.98867 101.276 7.01708 101.608 7.0739C101.949 7.12125 102.276 7.19227 102.588 7.28696V13.9773C102.2 13.8447 101.722 13.7453 101.153 13.679C100.585 13.6127 100.097 13.5796 99.6903 13.5796C98.9233 13.5796 98.232 13.7548 97.6164 14.1051C97.0104 14.4461 96.5322 14.929 96.1818 15.554C95.8314 16.1695 95.6562 16.894 95.6562 17.7273V29.0909H87.8153ZM110 16.8182V29.0909H102.159V7.27276H109.602V11.4205H109.83C110.303 10.0379 111.136 8.95363 112.33 8.16765C113.532 7.38166 114.934 6.98867 116.534 6.98867C118.078 6.98867 119.418 7.34378 120.554 8.05401C121.7 8.75477 122.585 9.72068 123.21 10.9517C123.845 12.1828 124.157 13.589 124.148 15.1705V29.0909H116.307V16.8182C116.316 15.7387 116.042 14.8911 115.483 14.2756C114.934 13.6601 114.167 13.3523 113.182 13.3523C112.538 13.3523 111.974 13.4944 111.491 13.7784C111.018 14.0531 110.653 14.4508 110.398 14.9716C110.142 15.483 110.009 16.0985 110 16.8182ZM135.53 29.4887C133.162 29.4887 131.136 29.0199 129.45 28.0824C127.765 27.1354 126.472 25.8192 125.572 24.1336C124.673 22.4385 124.223 20.4735 124.223 18.2387C124.223 16.0038 124.673 14.0436 125.572 12.358C126.472 10.6629 127.765 9.34662 129.45 8.40912C131.136 7.46215 133.162 6.98867 135.53 6.98867C137.897 6.98867 139.924 7.46215 141.609 8.40912C143.295 9.34662 144.588 10.6629 145.487 12.358C146.387 14.0436 146.837 16.0038 146.837 18.2387C146.837 20.4735 146.387 22.4385 145.487 24.1336C144.588 25.8192 143.295 27.1354 141.609 28.0824C139.924 29.0199 137.897 29.4887 135.53 29.4887ZM135.587 23.6932C136.249 23.6932 136.822 23.4707 137.305 23.0256C137.788 22.5805 138.162 21.9461 138.428 21.1222C138.693 20.2983 138.825 19.3182 138.825 18.1819C138.825 17.036 138.693 16.0559 138.428 15.2415C138.162 14.4176 137.788 13.7832 137.305 13.3381C136.822 12.893 136.249 12.6705 135.587 12.6705C134.886 12.6705 134.285 12.893 133.783 13.3381C133.281 13.7832 132.897 14.4176 132.632 15.2415C132.367 16.0559 132.234 17.036 132.234 18.1819C132.234 19.3182 132.367 20.2983 132.632 21.1222C132.897 21.9461 133.281 22.5805 133.783 23.0256C134.285 23.4707 134.886 23.6932 135.587 23.6932Z" fill="url(#paint0_linear_104_407)"/>
<defs>
<linearGradient id="paint0_linear_104_407" x1="-3.5249" y1="14.5909" x2="150.475" y2="14.5909" gradientUnits="userSpaceOnUse">
<stop stop-color="#00C2FF"/>
<stop offset="0.5" stop-color="#3B82F6"/>
<stop offset="1" stop-color="#8B5CF6"/>
</linearGradient>
</defs>
</svg>
